<svg width="126" height="72" viewBox="0 0 126 72" fill="none" xmlns="http://www.w3.org/2000/svg">
<path fill-rule="evenodd" clip-rule="evenodd" d="M72.7002 22.7001H84.0002V34.2001H89.7002C92.3002 34.2001 95.0002 33.7001 97.5002 32.9001C98.7002 32.5001 100.1 31.9001 101.3 31.2001C99.7002 29.1001 98.9002 26.5001 98.7002 23.9001C98.4002 20.4001 99.1002 15.8001 101.5 13.1001L102.7 11.7001L104.1 12.8001C107.7 15.7001 110.6 19.6001 111.2 24.2001C115.5 22.9001 120.5 23.2001 124.3 25.4001L125.8 26.3001L125 27.9001C121.8 34.1001 115.1 36.1001 108.6 35.7001C98.8002 60.0001 77.6002 71.5001 51.8002 71.5001C38.5002 71.5001 26.3002 66.5001 19.3002 54.7001L19.2002 54.5001L18.2002 52.4001C15.8002 47.2001 15.1002 41.5001 15.6002 35.8001L15.8002 34.1001H25.4002V22.7001H36.7002V11.4001H59.2002V0.100098H72.7002V22.7001Z" fill="#3A4D54"/>
<path d="M109.2 26.9C110 21 105.6 16.4 102.8 14.2C99.6998 17.8 99.1998 27.4 104.1 31.4C101.3 33.8 95.5998 36.0999 89.5998 36.0999H17.3998C16.7998 42.2999 17.8998 48 20.3998 52.9L21.1998 54.4C21.6998 55.3 22.2998 56.1 22.8998 57C25.8998 57.2 28.5998 57.2999 31.0998 57.1999C35.9998 57.0999 39.9998 56.5 43.0998 55.5C43.5998 55.3 43.9998 55.6 44.1998 56C44.3998 56.5 44.0998 56.8999 43.6998 57.0999C43.2998 57.1999 42.8998 57.4 42.3998 57.5C39.9998 58.2 37.3998 58.6 34.0998 58.8H33.4998C32.1998 58.9 30.7998 58.9 29.2998 58.9C27.6998 58.9 26.1998 58.9 24.3998 58.8C30.3998 65.6 39.7998 69.5999 51.5998 69.5999C76.5998 69.5999 97.7998 58.5 107.1 33.7C113.8 34.4 120.2 32.7 123.1 27C118.6 24.4 112.6 25.2 109.2 26.9Z" fill="#00AADA"/>
<path d="M109.2 26.9C110 21 105.6 16.4 102.8 14.2C99.6999 17.8 99.1999 27.4 104.1 31.4C101.3 33.8 95.5999 36.0999 89.5999 36.0999H21.5999C21.2999 45.5999 24.7999 52.7999 31.0999 57.0999C35.9999 56.9999 39.9999 56.4 43.0999 55.4C43.5999 55.2 43.9999 55.5 44.1999 55.9C44.3999 56.4 44.0999 56.8 43.6999 57C43.2999 57.1 42.8999 57.3 42.3999 57.4C39.9999 58.1 37.1999 58.6 33.8999 58.8L33.7999 58.6999C42.2999 63.0999 54.5999 62.9999 68.7999 57.5999C84.5999 51.4999 99.3999 39.9 109.7 26.7C109.5 26.8 109.4 26.9 109.2 26.9Z" fill="#28B8EB"/>
<path d="M17.5 43.6001C17.9 46.9001 18.9 50.0001 20.4 52.9001L21.2 54.4001C21.7 55.3001 22.3 56.1001 22.9 57.0001C25.9 57.2001 28.6 57.3001 31.1 57.2001C36 57.1001 40 56.5001 43.1 55.5001C43.6 55.3001 44 55.6001 44.2 56.0001C44.4 56.5001 44.1 56.9001 43.7 57.1001C43.3 57.2001 42.9 57.4001 42.4 57.5001C40 58.2001 37.2 58.7001 33.9 58.9001H33.5C32.2 59.0001 30.8 59.0001 29.4 59.0001C27.8 59.0001 26.2 59.0001 24.5 58.9001C30.5 65.7001 40 69.7001 51.8 69.7001C73.2 69.7001 91.8 61.6001 102.6 43.7001H17.5V43.6001Z" fill="#028BB8"/>
<path d="M22.2998 43.6001C23.5998 49.4001 26.5998 54.0001 31.0998 57.1001C35.9998 57.0001 39.9998 56.4001 43.0998 55.4001C43.5998 55.2001 43.9998 55.5001 44.1998 55.9001C44.3998 56.4001 44.0998 56.8001 43.6998 57.0001C43.2998 57.1001 42.8998 57.3001 42.3998 57.4001C39.9998 58.1001 37.1998 58.6001 33.7998 58.8001C42.2998 63.2001 54.5998 63.1001 68.6998 57.7001C77.1998 54.4001 85.4998 49.5001 92.8998 43.6001H22.2998Z" fill="#019BC6"/>
<path fill-rule="evenodd" clip-rule="evenodd" d="M27.2002 24.5H37.0002V34.3H27.2002V24.5ZM28.0002 25.4001H28.8002V33.5H28.0002V25.4001ZM29.5002 25.4001H30.3002V33.5H29.5002V25.4001ZM31.0002 25.4001H31.8002V33.5H31.0002V25.4001ZM32.4002 25.4001H33.2002V33.5H32.4002V25.4001ZM33.9002 25.4001H34.7002V33.5H33.9002V25.4001ZM35.4002 25.4001H36.2002V33.5H35.4002V25.4001ZM38.5002 13.3H48.3002V23H38.5002V13.3ZM39.3002 14.1H40.1002V22.2001H39.3002V14.1ZM40.8002 14.1H41.6002V22.2001H40.8002V14.1ZM42.2002 14.1H43.0002V22.2001H42.2002V14.1ZM43.7002 14.1H44.5002V22.2001H43.7002V14.1ZM45.2002 14.1H46.0002V22.2001H45.2002V14.1ZM46.7002 14.1H47.5002V22.2001H46.7002V14.1Z" fill="#00ACD3"/>
<path fill-rule="evenodd" clip-rule="evenodd" d="M38.5 24.5H48.3V34.3H38.5V24.5ZM39.3 25.4H40.1V33.5H39.3V25.4ZM40.8 25.4H41.6V33.5H40.8V25.4ZM42.2 25.4H43V33.5H42.2V25.4ZM43.7 25.4H44.5V33.5H43.7V25.4ZM45.2 25.4H46V33.5H45.2V25.4ZM46.7 25.4H47.5V33.5H46.7V25.4Z" fill="#23C2EE"/>
<path fill-rule="evenodd" clip-rule="evenodd" d="M49.7998 24.5H59.5998V34.3H49.7998V24.5ZM50.5998 25.4H51.3998V33.5H50.5998V25.4ZM51.9998 25.4H52.7998V33.5H51.9998V25.4ZM53.4998 25.4H54.2998V33.5H53.4998V25.4ZM54.9998 25.4H55.7998V33.5H54.9998V25.4ZM56.4998 25.4H57.2998V33.5H56.4998V25.4ZM57.8998 25.4H58.6998V33.5H57.8998V25.4Z" fill="#00ACD3"/>
<path fill-rule="evenodd" clip-rule="evenodd" d="M49.7998 13.3H59.5998V23H49.7998V13.3ZM50.5998 14.1H51.3998V22.2001H50.5998V14.1ZM51.9998 14.1H52.7998V22.2001H51.9998V14.1ZM53.4998 14.1H54.2998V22.2001H53.4998V14.1ZM54.9998 14.1H55.7998V22.2001H54.9998V14.1ZM56.4998 14.1H57.2998V22.2001H56.4998V14.1ZM57.8998 14.1H58.6998V22.2001H57.8998V14.1ZM60.9998 24.5H70.7998V34.3H60.9998V24.5ZM61.8998 25.4001H62.6998V33.5H61.8998V25.4001ZM63.2998 25.4001H64.0998V33.5H63.2998V25.4001ZM64.7998 25.4001H65.5998V33.5H64.7998V25.4001ZM66.2998 25.4001H67.0998V33.5H66.2998V25.4001ZM67.6998 25.4001H68.4998V33.5H67.6998V25.4001ZM69.1998 25.4001H69.9998V33.5H69.1998V25.4001Z" fill="#23C2EE"/>
<path fill-rule="evenodd" clip-rule="evenodd" d="M61 13.3H70.8V23H61V13.3ZM61.9 14.1H62.7V22.2001H61.9V14.1ZM63.3 14.1H64.1V22.2001H63.3V14.1ZM64.8 14.1H65.6V22.2001H64.8V14.1ZM66.3 14.1H67.1V22.2001H66.3V14.1ZM67.7 14.1H68.5V22.2001H67.7V14.1ZM69.2 14.1H70V22.2001H69.2V14.1Z" fill="#00ACD3"/>
<path fill-rule="evenodd" clip-rule="evenodd" d="M61 2H70.8V11.8H61V2ZM61.9 2.8H62.7V11H61.9V2.8ZM63.3 2.8H64.1V11H63.3V2.8ZM64.8 2.8H65.6V11H64.8V2.8ZM66.3 2.8H67.1V11H66.3V2.8ZM67.7 2.8H68.5V11H67.7V2.8ZM69.2 2.8H70V11H69.2V2.8Z" fill="#23C2EE"/>
<path fill-rule="evenodd" clip-rule="evenodd" d="M72.2998 24.5H82.0998V34.3H72.2998V24.5ZM73.0998 25.4H73.8998V33.5H73.0998V25.4ZM74.5998 25.4H75.3998V33.5H74.5998V25.4ZM76.0998 25.4H76.8998V33.5H76.0998V25.4ZM77.4998 25.4H78.2998V33.5H77.4998V25.4ZM78.9998 25.4H79.7998V33.5H78.9998V25.4ZM80.4998 25.4H81.2998V33.5H80.4998V25.4Z" fill="#00ACD3"/>
<path fill-rule="evenodd" clip-rule="evenodd" d="M47.6004 50.2C49.1004 50.2 50.3004 51.4 50.3004 52.9C50.3004 54.4 49.1004 55.5999 47.6004 55.5999C46.1004 55.5999 44.9004 54.4 44.9004 52.9C45.0004 51.4 46.2004 50.2 47.6004 50.2Z" fill="#D4EEF1"/>
<path fill-rule="evenodd" clip-rule="evenodd" d="M47.6 50.8999C47.8 50.8999 48.1 50.8999 48.3 50.9999C48.1 51.0999 47.9 51.3999 47.9 51.6999C47.9 52.0999 48.3 52.4999 48.7 52.4999C49 52.4999 49.3 52.2999 49.4 52.0999C49.5 52.2999 49.5 52.5999 49.5 52.7999C49.5 53.8999 48.6 54.6999 47.6 54.6999C46.5 54.6999 45.7 53.7999 45.7 52.7999C45.7 51.7999 46.6 50.8999 47.6 50.8999ZM0 44.5999H125.3C122.6 43.8999 116.7 42.9999 117.6 39.3999C112.6 45.0999 100.7 43.3999 97.6 40.5999C94.2 45.4999 74.6 43.5999 73.3 39.7999C69.1 44.7999 56 44.7999 51.8 39.7999C50.4 43.5999 30.8 45.4999 27.5 40.5999C24.5 43.3999 12.5 45.0999 7.5 39.3999C8.6 42.8999 2.7 43.8999 0 44.5999Z" fill="#3A4D54"/>
<path d="M54.8002 69.5999C48.1002 66.3999 44.5002 62.0999 42.4002 57.3999C39.9002 58.0999 36.9002 58.5999 33.5002 58.7999C32.2002 58.8999 30.8002 58.8999 29.4002 58.8999C27.7002 58.8999 26.0002 58.8999 24.2002 58.7999C30.3002 64.8999 37.9002 69.5999 51.8002 69.6999C52.8002 69.5999 53.8002 69.5999 54.8002 69.5999Z" fill="#BFDBE0"/>
<path d="M44.9 61.6999C44 60.3999 43.1 58.8999 42.4 57.3999C39.9 58.0999 36.9 58.5999 33.5 58.7999C35.9 60.0999 39.3 61.2999 44.9 61.6999Z" fill="#D4EEF1"/>
</svg>
