<svg width="520" height="534" viewBox="0 0 520 534" fill="none" xmlns="http://www.w3.org/2000/svg">
<g clip-path="url(#clip0_3224_966)">
<path fill-rule="evenodd" clip-rule="evenodd" d="M518.745 120.987C518.937 121.698 519.036 122.431 519.037 123.168V237.646C519.038 239.116 518.65 240.559 517.913 241.831C517.177 243.102 516.118 244.156 514.843 244.887L418.759 300.207V409.855C418.759 412.839 417.173 415.593 414.586 417.096L214.019 532.555C213.56 532.816 213.059 532.983 212.558 533.16C212.37 533.223 212.193 533.338 211.994 533.39C210.592 533.759 209.119 533.759 207.717 533.39C207.487 533.327 207.278 533.202 207.059 533.119C206.6 532.952 206.12 532.806 205.682 532.555L5.15675 417.096C3.88287 416.364 2.82441 415.309 2.08804 414.038C1.35167 412.767 0.963412 411.324 0.962402 409.855L0.962402 66.419C0.962402 65.6678 1.06674 64.9374 1.25455 64.2279C1.31715 63.9879 1.46322 63.7688 1.54669 63.5289C1.7032 63.0906 1.84927 62.642 2.07881 62.2351C2.23531 61.9638 2.46486 61.7447 2.65266 61.4943C2.89264 61.1604 3.11174 60.8161 3.39345 60.5239C3.63343 60.284 3.94644 60.1066 4.21772 59.8979C4.52029 59.6475 4.79157 59.3762 5.13588 59.178L105.414 1.44831C106.684 0.717752 108.123 0.333252 109.588 0.333252C111.052 0.333252 112.492 0.717752 113.761 1.44831L214.029 59.178H214.05C214.384 59.3867 214.665 59.6475 214.968 59.8875C215.239 60.0962 215.542 60.284 215.782 60.5135C216.074 60.8161 216.283 61.1604 216.533 61.4943C216.71 61.7447 216.95 61.9638 217.097 62.2351C217.337 62.6524 217.472 63.0906 217.639 63.5289C217.723 63.7688 217.869 63.9879 217.931 64.2383C218.123 64.9494 218.222 65.6825 218.223 66.419V280.926L301.776 232.816V123.157C301.776 122.427 301.881 121.686 302.069 120.987C302.142 120.737 302.277 120.518 302.361 120.278C302.528 119.84 302.674 119.391 302.903 118.984C303.06 118.713 303.289 118.494 303.467 118.243C303.717 117.909 303.926 117.565 304.218 117.273C304.458 117.033 304.761 116.856 305.032 116.647C305.345 116.396 305.616 116.125 305.95 115.927L406.239 58.1972C407.508 57.4656 408.947 57.0806 410.412 57.0806C411.877 57.0806 413.316 57.4656 414.586 58.1972L514.854 115.927C515.208 116.136 515.48 116.396 515.793 116.636C516.053 116.845 516.356 117.033 516.596 117.262C516.888 117.565 517.097 117.909 517.347 118.243C517.535 118.494 517.765 118.713 517.911 118.984C518.151 119.391 518.286 119.84 518.453 120.278C518.547 120.518 518.683 120.737 518.745 120.987ZM502.323 232.816V137.619L467.234 157.818L418.759 185.728V280.926L502.333 232.816H502.323ZM402.055 405.024V309.764L354.373 336.996L218.213 414.706V510.863L402.055 405.024ZM17.6772 80.8697V405.024L201.498 510.853V414.717L105.466 360.368L105.435 360.347L105.393 360.326C105.07 360.138 104.799 359.867 104.496 359.637C104.235 359.429 103.933 359.262 103.703 359.032L103.682 359.001C103.411 358.74 103.223 358.417 102.994 358.124C102.785 357.843 102.534 357.603 102.368 357.311L102.357 357.279C102.169 356.966 102.055 356.591 101.919 356.236C101.783 355.923 101.606 355.631 101.522 355.297C101.418 354.9 101.397 354.473 101.355 354.066C101.314 353.753 101.23 353.44 101.23 353.127V128.979L52.7657 101.059L17.6772 80.8697ZM109.598 18.33L26.0555 66.419L109.577 114.508L193.109 66.4086L109.577 18.33H109.598ZM153.044 318.445L201.509 290.545V80.8697L166.42 101.069L117.945 128.979V338.655L153.044 318.445ZM410.412 75.079L326.88 123.168L410.412 171.257L493.934 123.157L410.412 75.079ZM402.055 185.728L353.58 157.818L318.491 137.619V232.816L366.956 260.715L402.055 280.926V185.728ZM209.845 400.256L332.368 330.308L393.614 295.355L310.144 247.298L214.039 302.628L126.449 353.054L209.845 400.256Z" fill="#FF2D20"/>
</g>
<defs>
<clipPath id="clip0_3224_966">
<rect width="520" height="534" fill="white"/>
</clipPath>
</defs>
</svg>
