<svg width="924" height="478" viewBox="0 0 924 478" fill="none" xmlns="http://www.w3.org/2000/svg">
<g clip-path="url(#clip0_3224_960)">
<path d="M0.461914 434.844H30.8729V314.756L77.9504 419.445C83.5059 432.114 91.1098 436.599 106.022 436.599C120.936 436.599 128.246 432.116 133.804 419.445L180.882 314.756V434.842H211.292V314.953C211.292 303.254 206.613 297.602 196.966 294.68C173.865 287.466 158.366 293.704 151.347 309.3L105.145 412.62L60.4076 309.3C53.6822 293.704 37.8919 287.466 14.7912 294.68C5.14125 297.602 0.461914 303.257 0.461914 314.95V434.844ZM236.579 337.099H266.98V403.259C266.696 406.853 268.134 415.289 284.793 415.549C293.292 415.684 350.389 415.549 350.922 415.549V336.777H381.394C381.534 336.777 381.364 444.203 381.366 444.66C381.532 471.154 348.492 476.908 333.263 477.354H237.237V456.893C237.408 456.893 333.192 456.915 333.434 456.891C353.006 454.824 350.694 445.096 350.692 441.821V433.845H286.053C255.978 433.568 236.83 420.441 236.593 405.345C236.569 403.945 237.242 337.76 236.577 337.097L236.579 337.099Z" fill="#00618A"/>
<path d="M404.83 434.844H492.26C502.495 434.844 512.436 432.701 520.334 428.995C533.491 422.954 539.925 414.767 539.925 404.042V381.82C539.925 373.046 532.615 364.858 518.285 359.402C510.681 356.475 501.325 354.916 492.26 354.916H455.413C443.137 354.916 437.287 351.213 435.826 343.026C435.533 342.051 435.533 341.269 435.533 340.296V326.457C435.533 325.675 435.533 324.894 435.826 323.921C437.287 317.683 440.506 315.926 451.323 314.953C452.199 314.953 453.369 314.756 454.248 314.756H541.095V294.485H455.709C443.428 294.485 436.994 295.264 431.147 297.017C413.017 302.672 405.122 311.64 405.122 327.234V344.975C405.122 358.622 420.621 370.318 446.644 373.046C449.571 373.241 452.493 373.435 455.415 373.435H486.996C488.168 373.435 489.338 373.435 490.214 373.631C499.864 374.413 503.956 376.165 506.883 379.675C508.635 381.427 509.22 383.184 509.22 385.133V402.87C509.22 405.018 507.759 407.748 504.837 410.086C502.204 412.425 497.818 413.986 491.969 414.377C490.799 414.377 489.923 414.571 488.753 414.571H404.828V434.842L404.83 434.844ZM729.637 399.56C729.637 420.418 745.134 432.116 776.423 434.456C779.345 434.65 782.272 434.844 785.195 434.844H864.44V414.571H784.61C766.773 414.571 760.048 410.086 760.048 399.365V294.483H729.637V399.56ZM559.334 400.623V328.342C559.334 309.98 572.228 298.843 597.718 295.326C600.436 294.938 603.178 294.743 605.923 294.741H663.648C666.577 294.741 669.218 294.938 672.147 295.326C697.639 298.843 710.531 309.98 710.531 328.342V400.62C710.531 415.516 705.056 423.491 692.437 428.687L722.393 455.726H687.082L662.847 433.849L638.449 435.396H605.923C600.356 435.396 594.497 434.612 588.049 432.855C568.711 427.581 559.334 417.422 559.334 400.62V400.623ZM592.155 398.866C592.155 399.844 592.449 400.819 592.743 401.992C594.5 410.391 602.412 415.08 614.425 415.08H642.053L616.675 392.169H651.983L674.12 412.151C678.197 409.977 680.883 406.652 681.821 402.382C682.112 401.407 682.112 400.429 682.112 399.453V330.104C682.112 329.322 682.112 328.344 681.821 327.366C680.061 319.551 672.149 315.062 660.43 315.062H614.425C600.948 315.062 592.158 320.923 592.158 330.104V398.866H592.155Z" fill="#E48E00"/>
<path d="M891.193 260.851C872.501 260.345 858.222 262.083 846.014 267.231C842.545 268.694 837.013 268.732 836.447 273.08C838.354 275.079 838.65 278.063 840.165 280.521C843.078 285.238 848.001 291.558 852.392 294.874C857.189 298.497 862.134 302.369 867.277 305.506C876.425 311.083 886.639 314.268 895.448 319.857C900.639 323.151 905.797 327.3 910.862 331.018C913.365 332.855 915.049 335.714 918.303 336.867V336.334C916.593 334.158 916.152 331.165 914.582 328.891L907.672 321.981C900.916 313.013 892.339 305.137 883.222 298.594C875.952 293.375 859.678 286.327 856.645 277.864L856.112 277.331C861.267 276.751 867.303 274.885 872.061 273.613C880.053 271.468 887.193 272.022 895.448 269.89C899.166 268.827 902.889 267.761 906.611 266.701V264.574C902.439 260.293 899.464 254.628 894.913 250.754C883.013 240.618 870.022 230.493 856.645 222.05C849.225 217.366 840.056 214.323 832.194 210.354C829.549 209.021 824.901 208.327 823.155 206.101C819.025 200.837 816.776 194.161 813.588 188.028C806.917 175.181 800.365 161.148 794.454 147.629C790.421 138.412 787.788 129.323 782.76 121.052C758.625 81.3695 732.645 57.4211 692.399 33.8776C683.836 28.8715 673.525 26.8918 662.63 24.3105L645.089 23.2449C641.521 21.753 637.808 17.3886 634.457 15.2716C621.124 6.85066 586.929 -11.4712 577.054 12.6146C570.819 27.8177 586.373 42.6537 591.935 50.3571C595.84 55.7611 600.839 61.8186 603.629 67.8975C605.464 71.8925 605.782 75.8969 607.352 80.1239C611.216 90.5364 614.574 101.863 619.576 111.484C622.103 116.353 624.887 121.483 628.082 125.835C630.04 128.509 633.396 129.686 633.926 133.811C630.644 138.405 630.457 145.533 628.612 151.351C620.305 177.547 623.438 210.103 635.522 229.491C639.231 235.442 647.964 248.206 659.973 243.311C670.478 239.032 668.131 225.773 671.136 214.077C671.816 211.425 671.397 209.473 672.73 207.697V208.23L682.297 227.364C689.377 238.767 701.947 250.685 712.596 258.727C718.119 262.897 722.467 270.108 729.606 272.547V272.015H729.074C727.691 269.86 725.526 268.964 723.76 267.231C719.599 263.153 714.974 258.083 711.533 253.411C701.848 240.261 693.287 225.87 685.489 210.887C681.764 203.736 678.527 195.84 675.387 188.561C674.177 185.755 674.191 181.511 671.669 180.055C668.23 185.39 663.165 189.705 660.506 196.004C656.253 206.073 655.703 218.351 654.129 231.085C653.195 231.418 653.607 231.189 653.063 231.615C645.66 229.829 643.058 222.209 640.308 215.671C633.346 199.137 632.056 172.512 638.177 153.48C639.764 148.554 646.925 133.044 644.026 128.497C642.643 123.957 638.078 121.331 635.522 117.864C632.361 113.575 629.204 107.93 627.016 102.978C621.321 90.0865 618.662 75.6151 612.666 62.5835C609.8 56.3531 604.953 50.0493 600.972 44.5103C596.565 38.377 591.63 33.8539 588.215 26.4347C587 23.799 585.35 19.5791 587.15 16.8677C587.725 15.0395 588.533 14.2746 590.342 13.6778C593.425 11.3027 602.012 14.4688 605.223 15.8044C613.748 19.3447 620.862 22.7168 628.082 27.498C631.549 29.7974 635.054 34.2423 639.243 35.4737H644.026C651.509 37.1929 659.892 36.0065 666.883 38.1307C679.24 41.8865 690.313 47.7262 700.368 54.0774C731.008 73.4222 756.058 100.961 773.193 133.811C775.95 139.099 777.143 144.147 779.571 149.757C784.47 161.072 790.641 172.714 795.515 183.777C800.379 194.813 805.12 205.954 811.994 215.14C815.611 219.969 829.57 222.559 835.912 225.238C840.362 227.118 847.648 229.076 851.861 231.615C859.908 236.47 867.704 242.248 875.251 247.564C879.023 250.221 890.615 256.049 891.193 260.851Z" fill="#00618A"/>
<path fill-rule="evenodd" clip-rule="evenodd" d="M653.596 58.3305C649.698 58.2595 646.941 58.7568 644.026 59.3914V59.9242H644.559C646.418 63.7439 649.698 66.202 652 69.4913C653.77 73.213 655.543 76.9341 657.316 80.6544L657.847 80.124C661.138 77.8033 662.647 74.0925 662.63 68.4304C661.311 67.0427 661.114 65.2998 659.973 63.6445C658.453 61.4374 655.512 60.1871 653.596 58.3305Z" fill="#00618A"/>
<path fill-rule="evenodd" clip-rule="evenodd" d="M878.713 413.993C878.713 427.382 889.293 436.405 901.127 436.405C912.96 436.405 923.538 427.382 923.538 413.993C923.538 400.606 912.96 391.584 901.127 391.584C889.293 391.584 878.715 400.606 878.715 413.993H878.713ZM918.518 413.993C918.518 424.152 910.751 431.744 901.127 431.744C891.387 431.744 883.736 424.152 883.736 413.993C883.736 403.834 891.385 396.242 901.127 396.242C910.751 396.242 918.518 403.834 918.518 413.993ZM907.165 426.781H912.183L904.835 415.549C908.778 415.13 911.764 413.216 911.764 408.556C911.764 403.356 908.48 401.206 902.145 401.206H892.164V426.781H896.466V415.727H900.469L907.165 426.781ZM896.466 412.141V404.791H901.425C903.997 404.791 907.104 405.269 907.104 408.258C907.104 411.841 904.295 412.141 901.065 412.141H896.466Z" fill="#E48E00"/>
</g>
<defs>
<clipPath id="clip0_3224_960">
<rect width="924" height="478" fill="white"/>
</clipPath>
</defs>
</svg>
