<svg width="128" height="68" viewBox="0 0 128 68" fill="none" xmlns="http://www.w3.org/2000/svg">
<g clip-path="url(#clip0_3224_968)">
<path d="M0 34C0 52.593 28.654 67.667 64 67.667C99.346 67.667 128 52.593 128 34C128 15.407 99.345 0.333008 64 0.333008C28.654 0.333008 0 15.407 0 34Z" fill="url(#paint0_radial_3224_968)"/>
<path d="M64 65.167C97.965 65.167 125.5 51.212 125.5 34C125.5 16.786 97.965 2.83301 64 2.83301C30.035 2.83301 2.5 16.786 2.5 34C2.5 51.212 30.035 65.167 64 65.167Z" fill="#777BB3"/>
<path d="M34.772 37.8639C37.565 37.8639 39.649 37.3489 40.968 36.3339C42.274 35.3279 43.175 33.5869 43.648 31.1589C44.088 28.8889 43.92 27.3049 43.148 26.4489C42.36 25.5749 40.655 25.1319 38.081 25.1319H33.617L31.144 37.8639H34.772ZM20.173 53.5469C20.0706 53.5468 19.9695 53.524 19.8769 53.4801C19.7844 53.4363 19.7027 53.3725 19.6377 53.2934C19.5727 53.2142 19.526 53.1217 19.501 53.0224C19.476 52.923 19.4733 52.8194 19.493 52.7189L26.05 18.9809C26.081 18.8232 26.1657 18.6811 26.2897 18.5788C26.4137 18.4765 26.5693 18.4204 26.73 18.4199H40.864C45.306 18.4199 48.612 19.6259 50.691 22.0049C52.779 24.3949 53.425 27.7389 52.608 31.9399C52.275 33.6509 51.703 35.2399 50.908 36.6639C50.0805 38.1286 49.0245 39.4519 47.78 40.5839C46.249 42.0159 44.516 43.0559 42.633 43.6669C40.781 44.2709 38.401 44.5769 35.563 44.5769H29.839L28.205 52.9849C28.1742 53.1432 28.0893 53.2858 27.9649 53.3883C27.8404 53.4908 27.6843 53.5469 27.523 53.5469H20.173Z" fill="black"/>
<path d="M34.1898 25.8261H38.0808C41.1878 25.8261 42.2668 26.5081 42.6338 26.9151C43.2408 27.5891 43.3568 29.0121 42.9648 31.0271C42.5258 33.2841 41.7118 34.8851 40.5448 35.7831C39.3508 36.7031 37.4068 37.1691 34.7718 37.1691H31.9858L34.1908 25.8271L34.1898 25.8261ZM40.8638 17.7261H26.7308C26.4085 17.7261 26.0962 17.8381 25.8474 18.043C25.5986 18.2479 25.4287 18.5328 25.3668 18.8491L18.8098 52.5881C18.7711 52.7891 18.7772 52.9961 18.8277 53.1944C18.8783 53.3928 18.972 53.5775 19.1022 53.7354C19.2324 53.8933 19.3959 54.0205 19.581 54.1079C19.766 54.1953 19.9681 54.2408 20.1728 54.2411H27.5228C27.845 54.2408 28.1572 54.1285 28.4058 53.9235C28.6544 53.7185 28.8241 53.4334 28.8858 53.1171L30.4108 45.2711H35.5618C38.4738 45.2711 40.9258 44.9531 42.8488 44.3271C44.8258 43.6851 46.6448 42.5961 48.2548 41.0901C49.5511 39.9093 50.6512 38.5297 51.5138 37.0031C52.3448 35.5161 52.9428 33.8561 53.2888 32.0721C54.1488 27.6491 53.4498 24.1081 51.2128 21.5481C48.9968 19.0111 45.5148 17.7251 40.8638 17.7251V17.7261ZM30.3008 38.5571H34.7718C37.7348 38.5571 39.9418 38.0001 41.3918 36.8821C42.8428 35.7661 43.8198 33.9021 44.3298 31.2911C44.8148 28.7831 44.5938 27.0141 43.6648 25.9831C42.7338 24.9531 40.8738 24.4371 38.0808 24.4371H33.0448L30.3008 38.5571ZM40.8648 19.1121C45.1168 19.1121 48.2178 20.2291 50.1678 22.4601C52.1178 24.6921 52.7038 27.8071 51.9278 31.8061C51.6058 33.4541 51.0648 34.9601 50.3028 36.3241C49.5388 37.6901 48.5428 38.9381 47.3118 40.0711C45.8438 41.4441 44.2148 42.4231 42.4198 43.0061C40.6258 43.5901 38.3398 43.8811 35.5628 43.8811H29.2668L27.5238 52.8511H20.1738L26.7318 19.1121H40.8648Z" fill="white"/>
<path d="M69.4591 44.577C69.3566 44.5771 69.2553 44.5545 69.1626 44.5109C69.0699 44.4672 68.988 44.4036 68.9228 44.3245C68.8576 44.2454 68.8107 44.1529 68.7855 44.0536C68.7603 43.9542 68.7574 43.8505 68.7771 43.75L71.6771 28.8219C71.9541 27.4019 71.8861 26.384 71.4871 25.952C71.2421 25.689 70.5081 25.248 68.3371 25.248H63.0811L59.4351 44.0159C59.4038 44.174 59.3185 44.3162 59.194 44.4184C59.0694 44.5205 58.9132 44.5762 58.7521 44.5759H51.4621C51.3597 44.576 51.2585 44.5535 51.1658 44.5099C51.0731 44.4663 50.9913 44.4028 50.926 44.3238C50.8607 44.2449 50.8137 44.1525 50.7883 44.0533C50.7629 43.9541 50.7598 43.8505 50.7791 43.75L57.3371 10.011C57.3681 9.8529 57.4531 9.71054 57.5775 9.60821C57.7019 9.50588 57.858 9.44994 58.0191 9.44995H65.3091C65.4115 9.44988 65.5126 9.47245 65.6053 9.51603C65.698 9.55962 65.7799 9.62314 65.8451 9.70206C65.9104 9.78099 65.9574 9.87336 65.9828 9.97257C66.0082 10.0718 66.0114 10.1754 65.9921 10.276L64.4101 18.4199H70.0631C74.3701 18.4199 77.2901 19.178 78.9911 20.741C80.7241 22.334 81.2661 24.8809 80.5991 28.3139L77.5481 44.0159C77.5168 44.1738 77.4317 44.316 77.3073 44.4181C77.183 44.5202 77.027 44.576 76.8661 44.5759H69.4591V44.577Z" fill="black"/>
<path d="M65.3101 8.75488H58.0191C57.6966 8.75495 57.3842 8.86712 57.1354 9.07217C56.8866 9.27722 56.7168 9.56241 56.6551 9.87888L50.0981 43.6169C50.0592 43.8179 50.0652 44.0251 50.1156 44.2235C50.1661 44.422 50.2598 44.6068 50.3901 44.7649C50.5203 44.9229 50.6838 45.0502 50.869 45.1377C51.0541 45.2251 51.2563 45.2706 51.4611 45.2709H58.7521C59.0745 45.2708 59.3869 45.1586 59.6357 44.9536C59.8845 44.7485 60.0544 44.4634 60.1161 44.1469L63.6531 25.9419H68.3351C70.5031 25.9419 70.9591 26.4049 70.9761 26.4259C71.1081 26.5659 71.2811 27.2209 70.9951 28.6899L68.0951 43.6169C68.0561 43.818 68.0622 44.0252 68.1127 44.2238C68.1632 44.4223 68.257 44.6072 68.3874 44.7652C68.5177 44.9233 68.6814 45.0506 68.8666 45.138C69.0519 45.2254 69.2542 45.2708 69.4591 45.2709H76.8671C77.1893 45.2706 77.5015 45.1583 77.7501 44.9533C77.9987 44.7482 78.1684 44.4632 78.2301 44.1469L81.2811 28.4469C81.9961 24.7609 81.3841 21.9969 79.4611 20.2299C77.6251 18.5439 74.5511 17.7249 70.0631 17.7249H65.2531L66.6741 10.4099C66.7131 10.2087 66.7072 10.0013 66.6568 9.80268C66.6063 9.60404 66.5125 9.419 66.3822 9.26084C66.2518 9.10268 66.0881 8.9753 65.9028 8.88783C65.7174 8.80035 65.515 8.75496 65.3101 8.75488ZM65.3101 10.1449L63.5671 19.1129H70.0631C74.1501 19.1129 76.9701 19.8269 78.5201 21.2529C80.0731 22.6789 80.5371 24.9879 79.9181 28.1829L76.8661 43.8819H69.4591L72.3601 28.9539C72.6901 27.2559 72.5681 26.0979 71.9951 25.4799C71.4221 24.8629 70.2021 24.5539 68.3371 24.5539H62.5081L58.7521 43.8809H51.4601L58.0181 10.1419H65.3101V10.1449Z" fill="white"/>
<path d="M92.1358 37.8639C94.9288 37.8639 97.0138 37.3489 98.3338 36.3339C99.6378 35.3279 100.54 33.5869 101.013 31.1589C101.453 28.8889 101.286 27.3049 100.513 26.4489C99.7248 25.5749 98.0198 25.1319 95.4458 25.1319H90.9828L88.5078 37.8639H92.1358ZM77.5398 53.5469C77.4372 53.5471 77.3358 53.5245 77.243 53.4808C77.1502 53.4371 77.0683 53.3733 77.003 53.2942C76.9378 53.215 76.891 53.1223 76.8658 53.0228C76.8407 52.9234 76.838 52.8196 76.8578 52.7189L83.4148 18.9809C83.4458 18.8229 83.5308 18.6805 83.6552 18.5782C83.7796 18.4759 83.9357 18.4199 84.0968 18.4199H98.2298C102.672 18.4199 105.978 19.6259 108.056 22.0049C110.145 24.3949 110.79 27.7389 109.973 31.9399C109.661 33.5947 109.087 35.1893 108.274 36.6639C107.446 38.1284 106.39 39.4517 105.146 40.5839C103.616 42.0159 101.881 43.0559 99.9988 43.6669C98.1468 44.2709 95.7668 44.5769 92.9278 44.5769H87.2048L85.5718 52.9849C85.5409 53.1433 85.4559 53.2861 85.3312 53.3886C85.2066 53.4911 85.0502 53.5471 84.8888 53.5469H77.5398Z" fill="black"/>
<path d="M91.555 25.8261H95.446C98.553 25.8261 99.632 26.5081 99.998 26.9151C100.608 27.5891 100.722 29.0121 100.331 31.0271C99.891 33.2841 99.077 34.8851 97.91 35.7831C96.715 36.7031 94.771 37.1691 92.137 37.1691H89.351L91.555 25.8261ZM98.229 17.7261H84.096C83.7739 17.7264 83.4619 17.8385 83.2132 18.0433C82.9646 18.2482 82.7949 18.533 82.733 18.8491L76.175 52.5881C76.1363 52.7892 76.1424 52.9963 76.193 53.1947C76.2436 53.3931 76.3375 53.5779 76.4678 53.7358C76.5981 53.8937 76.7617 54.0209 76.9469 54.1082C77.1321 54.1956 77.3343 54.241 77.539 54.2411H84.889C85.2113 54.2408 85.5234 54.1285 85.772 53.9235C86.0207 53.7185 86.1903 53.4334 86.252 53.1171L87.777 45.2711H92.927C95.838 45.2711 98.291 44.9531 100.213 44.3271C102.191 43.6851 104.01 42.5961 105.621 41.0891C106.917 39.9086 108.017 38.5293 108.879 37.0031C109.711 35.5161 110.307 33.8561 110.654 32.0721C111.514 27.6491 110.816 24.1081 108.578 21.5481C106.362 19.0111 102.881 17.7251 98.228 17.7251L98.229 17.7261ZM87.666 38.5571H92.136C95.1 38.5571 97.306 38.0001 98.758 36.8821C100.208 35.7661 101.186 33.9021 101.694 31.2911C102.181 28.7831 101.96 27.0141 101.029 25.9831C100.099 24.9531 98.238 24.4371 95.446 24.4371H90.411L87.666 38.5571ZM98.229 19.1121C102.48 19.1121 105.583 20.2291 107.532 22.4601C109.482 24.6921 110.069 27.8071 109.291 31.8061C108.971 33.4541 108.429 34.9601 107.667 36.3241C106.904 37.6901 105.907 38.9381 104.675 40.0711C103.208 41.4441 101.578 42.4231 99.783 43.0061C97.99 43.5901 95.705 43.8811 92.927 43.8811H86.632L84.887 52.8511H77.537L84.095 19.1121H98.229Z" fill="white"/>
</g>
<defs>
<radialGradient id="paint0_radial_3224_968" cx="0" cy="0" r="1" gradientUnits="userSpaceOnUse" gradientTransform="translate(38.426 12.169) scale(84.0414)">
<stop stop-color="#AEB2D5"/>
<stop offset="0.3" stop-color="#AEB2D5"/>
<stop offset="0.75" stop-color="#484C89"/>
<stop offset="1" stop-color="#484C89"/>
</radialGradient>
<clipPath id="clip0_3224_968">
<rect width="128" height="68" fill="white"/>
</clipPath>
</defs>
</svg>
