<svg width="912" height="324" viewBox="0 0 912 324" fill="none" xmlns="http://www.w3.org/2000/svg">
<path d="M388.728 0.815918L387.408 2.14408C382.551 7.44304 376.371 10.0907 369.306 11.4155C345.02 16.7145 342.37 27.3141 342.812 37.4699V39.2293C352.968 28.6314 365.331 22.0132 369.747 20.2468L370.187 21.1265C349.433 32.6074 334.861 52.4825 332.653 55.5737C313.224 63.9636 299.975 81.1841 299.975 104.589C299.975 135.057 323.824 155.812 356.502 157.137V155.369C354.294 154.927 352.085 154.046 350.318 152.721C342.812 148.747 337.951 137.261 337.951 105.468C337.951 76.3244 341.487 62.6348 345.903 56.894C348.111 53.803 351.202 51.6003 354.734 51.1587V49.3907C349.435 49.8322 344.575 50.7119 340.159 52.4782C346.341 42.3219 348.551 43.2068 348.551 43.2068C355.616 43.6484 362.686 40.5591 362.686 40.5591C389.18 32.1692 390.061 0.817525 390.061 0.817525L388.728 0.815918ZM571.541 7.87936C560.943 7.87936 552.11 15.3844 552.11 25.9823C552.11 36.5802 560.501 44.0939 571.541 44.0939C582.139 44.0939 590.972 36.58 590.972 25.9823C590.972 15.3846 582.139 7.87936 571.541 7.87936ZM30.1727 11.4155V13.1835C42.9784 15.3914 48.2756 20.6903 48.2756 39.6772V138.581C48.2756 141.672 48.2774 144.323 47.8358 146.973C47.8358 146.973 46.9526 163.755 27.9647 173.027C27.9647 173.027 46.5146 176.118 64.6199 166.404C69.9189 163.754 74.3347 160.225 77.8672 156.693L78.3071 156.244C88.0218 145.646 89.3466 132.84 89.3466 129.75V39.6784C89.3466 19.8074 95.5268 15.3928 107.45 13.1848V11.4168L30.1727 11.4155ZM651.461 48.9491L605.983 62.6363V63.9645C607.308 64.4061 609.076 65.7291 609.959 66.6122C613.933 69.2615 616.134 72.3508 616.134 80.2994V136.375C616.134 149.181 613.046 152.274 604.215 153.598V155.366H662.499V153.598C654.551 152.274 651.908 149.183 651.908 138.143V49.8282L651.461 48.9491ZM251.405 49.389L205.927 63.0762V64.4043C207.252 64.8459 209.011 66.1689 209.894 67.052C213.868 69.7014 216.078 72.7906 216.078 80.7392V136.825C216.078 149.63 212.991 152.714 204.159 154.039V155.367H265.539V153.599C256.707 152.275 251.843 148.306 251.843 136.825V50.2665L251.405 49.389ZM460.711 49.389L415.224 63.0762V64.4043C416.549 64.8459 418.317 66.1689 419.2 67.052C423.615 69.7014 425.823 72.351 425.823 80.2993V136.375C425.823 149.181 422.736 152.274 413.904 153.598V155.366H472.188V153.598C464.24 152.274 461.589 149.183 461.589 138.143V49.8282L460.711 49.389ZM589.646 49.389L542.839 63.0762V64.4043C544.164 64.8459 546.372 66.6105 547.255 67.052C551.229 70.143 553.439 73.2306 553.439 81.1789V136.825C553.439 149.631 550.351 152.715 541.52 154.04V155.368H601.575V153.6C593.185 151.834 589.207 149.182 589.207 136.377V81.6304C589.207 72.3573 589.654 59.5446 590.095 50.272L589.646 49.389ZM850.622 49.389C820.596 52.4799 796.303 72.3526 796.303 104.145C795.862 134.613 819.703 155.81 852.379 157.135V155.367C850.171 154.925 847.97 154.044 846.204 152.719C838.697 148.745 833.836 137.258 833.836 105.465C833.836 76.3221 837.373 62.6325 841.788 56.8917C843.996 53.8007 847.087 51.598 850.62 51.1564L850.622 49.389ZM153.806 49.8288C125.988 53.803 105.674 74.556 105.674 105.468C105.233 132.403 122.016 157.138 155.577 157.138C186.929 157.138 200.172 132.41 203.263 119.604L201.944 118.716C196.645 126.222 188.251 131.083 174.12 131.083C154.249 131.083 141.442 118.279 141.442 90.9026C141.442 65.7338 146.744 54.6914 153.81 51.6002L153.806 49.8288ZM501.326 49.8288C486.313 49.8288 472.625 59.5416 466.001 70.1395V71.0279C469.092 69.7031 473.068 68.82 476.6 68.82C487.64 68.3784 492.495 73.6721 492.495 85.5945V138.143C492.495 149.182 489.411 152.273 481.905 153.598V155.366H539.752V153.598C531.362 151.831 528.273 149.18 528.273 136.374V80.2985C528.273 62.6354 521.642 49.828 501.33 49.828L501.326 49.8288ZM692.093 49.8288C677.079 49.8288 663.391 59.5416 656.767 70.1395V71.0279C659.858 69.7031 662.944 68.82 666.918 68.82C677.516 68.3784 681.054 73.6721 681.054 85.5945V138.143C681.054 149.182 677.961 152.273 670.454 153.598V155.366H726.981V153.598C719.033 152.273 716.822 149.182 716.822 138.143V80.2953C716.822 62.6323 711.966 49.8249 692.095 49.8249L692.093 49.8288ZM757.442 49.8288C742.429 49.8288 728.741 59.5416 722.117 70.1395V71.0279C725.208 69.7031 728.302 68.82 732.276 68.82C742.874 68.3784 746.403 73.6721 746.403 85.5945V138.143C746.403 149.182 743.319 152.273 735.813 153.598V155.366H794.097V153.598C785.707 151.831 782.178 149.18 782.178 136.374V80.2985C782.178 62.6354 777.312 49.8288 757.442 49.8288ZM855.919 49.8288V51.5968C858.127 52.0384 859.895 52.48 862.103 53.8047C869.61 57.7789 874.022 69.2564 874.022 101.049C874.022 130.192 870.934 143.882 866.518 149.622C864.311 153.155 860.336 155.365 857.687 155.806V157.574C888.155 154.042 911.997 134.611 911.997 102.818C911.997 72.3502 888.154 51.1536 855.919 49.8288ZM158.671 50.2687V52.0367C165.295 53.803 167.949 67.4953 168.391 82.0679L147.632 85.1555V86.9235H199.301C199.301 67.9357 186.931 51.1519 158.671 50.2687ZM280.104 50.2687C269.506 50.2687 259.355 59.5487 256.706 68.3803V69.26C259.797 63.961 263.327 62.6364 265.977 62.6364C266.86 62.6364 267.745 63.0763 267.745 63.0763C265.978 65.2842 264.649 69.2618 264.649 73.236C264.649 82.5091 271.717 89.1309 281.432 89.1309C292.472 89.1309 300.415 81.1807 300.415 69.6998C300.415 57.7773 292.91 50.2687 280.104 50.2687ZM359.587 50.2687V51.5968H360.027C362.235 52.0384 364.003 52.48 366.211 53.8047C373.718 57.7789 378.139 69.2564 378.139 101.049C378.139 130.192 375.042 143.882 370.627 149.622C368.419 153.155 364.444 155.365 361.795 155.806V157.574C392.263 154.042 416.114 134.611 416.114 102.818C416.114 72.3502 392.266 51.5935 359.587 50.2687ZM20.0351 130.441C16.4204 130.482 12.7388 131.574 9.42707 133.727C0.595549 139.467 -2.93701 150.508 2.80355 159.781C8.54411 169.054 20.018 170.817 28.8484 165.076C38.1215 158.894 41.2124 147.862 35.4719 139.031C31.8841 133.236 26.0595 130.372 20.0351 130.441ZM617.035 173.909C606.437 173.909 597.604 181.423 597.604 192.021C597.604 202.619 605.996 210.124 617.035 210.124C627.633 210.124 636.466 202.619 636.466 192.021C636.466 181.423 627.633 173.909 617.035 173.909ZM103.483 177.446V179.214C110.548 180.097 118.055 183.628 123.354 188.485C129.536 193.784 133.952 201.287 138.809 211.444L188.271 322.288V321.839L189.15 322.288L209.461 269.739L205.045 260.468L168.4 177.448L103.483 177.446ZM237.285 177.446L207.693 252.954L211.669 262.226L238.163 193.341L241.699 294.463C242.582 313.009 234.636 317.423 223.596 319.19V320.958H301.75V319.19C289.386 317.424 284.091 312.128 283.207 291.815L279.671 205.708C278.788 185.837 284.968 180.981 297.774 179.215V177.447H237.719L237.285 177.446ZM551.253 190.253L506.654 227.787V231.762H518.134V293.584C518.134 316.988 532.704 323.166 549.485 323.166C567.589 323.166 583.049 310.8 587.906 301.528V300.76C584.681 301.639 578.415 302.856 572.891 302.856C560.968 302.856 554.339 297.11 554.339 284.304V231.766H584.371L586.578 218.519H554.339V191.576L551.253 190.253ZM587.909 300.759C588.035 300.724 588.232 300.68 588.349 300.647H587.909V300.759ZM130.445 208.354L125.149 281.655C124.266 289.161 122.938 294.464 121.613 298.438C119.847 301.529 118.086 304.62 115.878 307.27C115.436 307.27 115.438 307.709 115.438 307.709C114.555 308.593 114.113 309.476 113.23 309.917C107.931 315.658 102.189 318.304 93.799 319.628V321.396H158.27V319.628C149.88 318.745 143.698 316.099 138.399 309.917C133.542 304.618 132.215 295.783 132.215 286.51L136.191 220.275L130.445 208.354ZM696.557 214.977L651.069 228.225V229.553C652.394 229.994 654.162 231.317 655.045 232.2C659.02 234.85 661.229 237.939 661.229 245.888V301.964C661.229 314.769 658.133 317.862 649.301 319.187V320.955H707.595V319.187C700.088 318.304 696.995 315.211 696.995 304.172V215.856L696.557 214.977ZM451.493 215.417L406.006 229.104V230.433C407.33 230.874 409.098 232.197 409.981 233.08C413.956 235.73 416.165 238.819 416.165 246.767V302.853C416.165 315.659 413.069 318.752 404.237 320.076V321.836H465.617V320.076C456.786 318.751 451.93 314.332 451.93 303.293V216.307L451.493 215.417ZM356.112 215.857C344.189 215.857 330.499 221.163 321.225 227.345V228.225C341.979 228.225 355.224 233.084 355.224 249.864V296.671C355.224 313.892 363.176 323.164 378.631 323.164C393.203 323.164 401.595 314.776 404.686 307.27V306.631C403.342 307.423 401.378 308.149 399.381 308.149C394.082 308.149 390.99 305.503 390.99 298.438V247.656C390.99 228.227 381.281 215.857 356.112 215.857ZM404.686 306.631C404.828 306.548 404.999 306.467 405.125 306.382H404.686V306.631ZM480.194 215.857C469.596 215.857 459.437 225.137 456.787 233.969V234.848C459.437 229.991 462.968 228.664 466.059 228.664C466.942 228.664 467.827 229.104 467.827 229.104C466.06 231.312 464.739 235.29 464.739 239.264C464.739 248.537 471.799 255.159 481.514 255.159C492.553 255.159 500.505 247.209 500.505 235.728C500.505 223.364 492.558 215.857 480.194 215.857ZM635.625 215.857L588.818 229.104V230.432C590.143 230.874 592.351 232.639 593.234 233.08C597.208 236.171 599.418 239.268 599.418 247.216V302.855C599.418 315.661 596.322 318.754 587.49 320.078V321.838H647.553V320.078C639.163 318.312 635.185 315.661 635.185 302.855V248.099C635.185 238.826 635.623 226.022 636.065 216.748L635.625 215.857ZM736.747 215.857C721.733 215.857 708.046 225.579 701.422 236.177V237.056C704.512 235.732 708.489 234.848 712.021 234.848C722.619 234.848 727.476 239.709 727.476 251.632V304.17C727.476 315.21 724.384 318.301 716.877 319.625V321.393H774.724V319.625C767.217 318.301 763.684 315.217 763.684 302.411V246.325C763.684 228.662 757.062 215.855 736.749 215.855L736.747 215.857ZM817.109 215.857C795.03 218.065 780.024 230.871 780.024 248.975C780.024 267.962 793.711 277.242 806.959 284.749C818.882 291.814 829.478 297.553 829.478 307.268C829.478 316.099 824.622 320.068 817.999 321.835V323.163C842.726 321.396 858.179 309.036 858.179 286.956C858.621 271.943 845.372 262.222 829.917 253.39C819.319 246.766 807.398 241.029 807.398 230.432C807.398 222.483 812.694 218.949 817.109 217.624L817.109 215.857ZM824.181 215.857V217.625C835.221 219.833 847.579 236.173 851.995 250.303H853.763L852.434 219.833C848.46 218.508 834.778 215.857 824.181 215.857ZM322.461 232.614C319.806 232.614 317.079 233.358 314.596 234.848C307.972 238.822 305.324 246.767 309.74 253.391C313.714 260.014 322.099 261.341 328.723 257.367C335.346 253.392 337.552 245.447 333.578 238.824C331.095 234.684 326.885 232.614 322.461 232.614ZM349.922 265.319C339.765 267.968 315.035 273.704 310.619 275.47C306.203 277.237 300.02 284.745 300.02 297.109C300.02 311.24 308.853 322.724 326.074 322.724C340.646 322.724 350.362 311.24 352.129 305.941V305.501C350.804 306.384 347.715 307.269 345.065 307.269C338.442 307.269 335.345 302.85 335.345 288.278C335.345 282.979 336.673 277.683 338.881 274.151C341.089 271.06 346.388 268.854 349.921 267.087L349.922 265.319ZM779.138 284.302L780.466 316.98C786.648 319.629 801.22 323.164 811.376 323.164V321.836C801.661 318.745 785.321 299.315 780.905 284.302L779.138 284.302ZM189.626 322.284L189.186 322.724H189.626V322.284Z" fill="#0F386C"/>
</svg>
